<?xml version="1.0" encoding="UTF-8"?>
<svg version="1.1" xmlns="http://www.w3.org/2000/svg" width="500" height="500">
    <path
        d="M0 0 C0.84046875 0.27610107 1.6809375 0.55220215 2.546875 0.83666992 C8.71312278 2.95876452 13.93328993 5.59164497 19.875 8.5625 C19.875 29.6825 19.875 50.8025 19.875 72.5625 C15.46948439 74.0310052 12.60050835 71.83563384 8.625 69.9375 C-18.68497324 57.418386 -53.00833045 49.40332104 -82.25 59.875 C-86.95210927 61.8342122 -90.02487951 63.53234336 -93.125 67.5625 C-93.7025 68.26375 -94.28 68.965 -94.875 69.6875 C-97.72474031 73.96211047 -97.73303602 78.61020666 -97.125 83.5625 C-96.27881213 85.78951261 -95.28256892 87.77189608 -94.09765625 89.8359375 C-93.125 91.5625 -93.125 91.5625 -92.125 94.5625 C-90.3445353 95.61006527 -90.3445353 95.61006527 -88.125 96.5625 C-87.3103125 97.06523437 -86.495625 97.56796875 -85.65625 98.0859375 C-73.18304386 105.70488042 -59.57132931 110.93063704 -46.125 116.5625 C16.06754149 142.68909067 16.06754149 142.68909067 29.875 171.5625 C34.52009022 183.56715503 36.2701532 195.93155951 36.25 208.75 C36.24838867 209.8335376 36.24677734 210.9170752 36.24511719 212.03344727 C36.10430619 221.34837095 34.70124423 229.71086009 31.875 238.5625 C31.58625 239.49835938 31.2975 240.43421875 31 241.3984375 C23.85558518 261.61968303 6.989909 275.28803389 -11.671875 284.26953125 C-44.92087555 298.60725529 -85.75765659 298.53222153 -121.125 293.5625 C-122.19878906 293.41184082 -123.27257812 293.26118164 -124.37890625 293.10595703 C-144.23226636 290.1934221 -163.11855817 285.56572092 -181.125 276.5625 C-181.125 254.1225 -181.125 231.6825 -181.125 208.5625 C-173.205 211.8625 -165.285 215.1625 -157.125 218.5625 C-128.43726897 228.82168858 -88.64833282 239.94312408 -59.2109375 226.69140625 C-53.87761264 223.80501882 -50.06056122 220.47671485 -48.125 214.5625 C-47.27753999 207.14460929 -47.47729358 200.62361851 -52.125 194.5625 C-62.40549444 182.61171928 -79.67609412 177.3905726 -93.69189453 171.20288086 C-137.06761951 152.0215195 -137.06761951 152.0215195 -153.125 137.5625 C-154.40310547 136.42554688 -154.40310547 136.42554688 -155.70703125 135.265625 C-166.0486868 125.54351563 -172.85979853 114.07796964 -177.125 100.5625 C-177.47498047 99.46615234 -177.47498047 99.46615234 -177.83203125 98.34765625 C-183.21444234 78.17329526 -179.90494319 54.84863342 -169.5625 36.9375 C-155.15788425 14.92443119 -131.74445696 -0.08835472 -106.11328125 -5.51953125 C-71.13021447 -12.59524428 -34.00303181 -11.17389516 0 0 Z "
        fill="#2EBB8D" transform="translate(446.125,100.4375)" />
    <path
        d="M0 0 C79.2 0 158.4 0 240 0 C240 20.46 240 40.92 240 62 C212.94 62.33 185.88 62.66 158 63 C158.00523682 69.90156006 158.01047363 76.80312012 158.01586914 83.91381836 C158.0319036 105.97137475 158.04303579 128.02893161 158.05106533 150.0864923 C158.0523161 153.51005412 158.05361042 156.93361593 158.05493164 160.35717773 C158.05532511 161.37957452 158.05532511 161.37957452 158.05572652 162.42262579 C158.06008326 173.47324669 158.06797082 184.52386241 158.0771528 195.57448023 C158.08648924 206.90511931 158.09198069 218.23575455 158.09408849 229.56639773 C158.09539603 235.93413684 158.09848458 242.30186418 158.10573006 248.66959953 C158.11248631 254.65552517 158.11461777 260.64143412 158.11310768 266.6273632 C158.11338419 268.83130992 158.11539164 271.03525716 158.11920547 273.23920059 C158.12413656 276.23414924 158.12300046 279.22903383 158.12025452 282.22398376 C158.12462378 283.55031882 158.12462378 283.55031882 158.12908131 284.90344852 C158.11412121 290.88587879 158.11412121 290.88587879 157 292 C132.58 292 108.16 292 83 292 C83 216.1 83 140.2 83 62 C55.61 62 28.22 62 0 62 C0 41.54 0 21.08 0 0 Z "
        fill="#FE3130" transform="translate(11,98)" />
    <path
        d="M0 0 C3.63 1.65 7.26 3.3 11 5 C7 9 7 9 5 10 C5 8.02 5 6.04 5 4 C4.34 4 3.68 4 3 4 C2.67 13.24 2.34 22.48 2 32 C1.34 32 0.68 32 0 32 C0 21.44 0 10.88 0 0 Z "
        fill="#43B18E" transform="translate(265,309)" />
    <path
        d="M0 0 C0.66 0 1.32 0 2 0 C4.6971935 5.94259707 5.10477192 11.58214735 4 18 C1.83940299 22.13950745 -0.69866865 25.69203947 -4 29 C-4.66 29 -5.32 29 -6 29 C-6 29.66 -6 30.32 -6 31 C-9.96 31.495 -9.96 31.495 -14 32 C-11.72026741 30.24635955 -9.4426843 28.65167769 -7 27.125 C-3.01603887 24.30302753 -0.55011001 21.65033004 1 17 C1.09475844 15.04351683 1.12988471 13.08377045 1.125 11.125 C1.12757813 10.09632813 1.13015625 9.06765625 1.1328125 8.0078125 C1.00995061 5.225352 0.62944236 2.70760126 0 0 Z "
        fill="#44AD8C" transform="translate(397,298)" />
    <path
        d="M0 0 C-3.63002273 2.25280305 -6.91194458 2.35580521 -11.125 2.5625 C-15.72633179 2.63762616 -15.72633179 2.63762616 -20 4 C-22.37402501 4.07116382 -24.75000677 4.08409085 -27.125 4.0625 C-28.40632813 4.05347656 -29.68765625 4.04445313 -31.0078125 4.03515625 C-32.48894531 4.01775391 -32.48894531 4.01775391 -34 4 C-34 3.34 -34 2.68 -34 2 C-32.84999512 1.91697632 -32.84999512 1.91697632 -31.67675781 1.83227539 C-28.20089775 1.5792989 -24.72545646 1.32095958 -21.25 1.0625 C-20.0434375 0.97548828 -18.836875 0.88847656 -17.59375 0.79882812 C-15.85351562 0.66831055 -15.85351562 0.66831055 -14.078125 0.53515625 C-12.47565918 0.41732788 -12.47565918 0.41732788 -10.84082031 0.29711914 C-8.07914345 0.07562841 -8.07914345 0.07562841 -5.76074219 -0.56079102 C-3.56016148 -1.10971568 -2.13162172 -0.68516412 0 0 Z "
        fill="#44B08E" transform="translate(383,331)" />
    <path
        d="M0 0 C6.25566476 0.34121808 11.94821053 1.69253931 17.9375 3.4375 C19.07433228 3.7636731 19.07433228 3.7636731 20.23413086 4.09643555 C25.74878165 5.74878165 25.74878165 5.74878165 28 8 C26.08210287 7.71653722 24.16570817 7.4228972 22.25 7.125 C21.18265625 6.96257812 20.1153125 6.80015625 19.015625 6.6328125 C16.32291129 6.06776118 14.36427561 5.36577086 12 4 C11.67 4.99 11.34 5.98 11 7 C11 6.34 11 5.68 11 5 C9.68 5 8.36 5 7 5 C7 4.01 7 3.02 7 2 C4.69 2 2.38 2 0 2 C0 1.34 0 0.68 0 0 Z "
        fill="#41AD8B" transform="translate(422,95)" />
    <path
        d="M0 0 C0.66 0 1.32 0 2 0 C1.95359375 0.70125 1.9071875 1.4025 1.859375 2.125 C1.59514406 9.07049898 2.60721673 12.98054581 6 19 C5.67 19.66 5.34 20.32 5 21 C4.01 20.34 3.02 19.68 2 19 C2 18.01 2 17.02 2 16 C0.68 15.67 -0.64 15.34 -2 15 C-1.67 14.01 -1.34 13.02 -1 12 C-0.77674186 9.94106379 -0.59294241 7.87766347 -0.4375 5.8125 C-0.35371094 4.72582031 -0.26992188 3.63914063 -0.18359375 2.51953125 C-0.12300781 1.68808594 -0.06242187 0.85664063 0 0 Z "
        fill="#41AE8B" transform="translate(347,173)" />
    <path
        d="M0 0 C0.66 0.33 1.32 0.66 2 1 C2 1.66 2 2.32 2 3 C7.05009595 3.93786082 7.05009595 3.93786082 12 3 C12 4.65 12 6.3 12 8 C8.05050296 7.37183502 4.80107972 6.1354471 1.1875 4.4375 C-0.27623047 3.75494141 -0.27623047 3.75494141 -1.76953125 3.05859375 C-2.50558594 2.70925781 -3.24164063 2.35992187 -4 2 C-2.125 0.9375 -2.125 0.9375 0 0 Z "
        fill="#3CB38B" transform="translate(362,272)" />
    <path
        d="M0 0 C0.66 0.33 1.32 0.66 2 1 C1.67 1.66 1.34 2.32 1 3 C0.01 3 -0.98 3 -2 3 C-2.66 4.98 -3.32 6.96 -4 9 C-4.556875 8.79375 -5.11375 8.5875 -5.6875 8.375 C-8.659538 7.89304789 -10.31979941 8.73434972 -13 10 C-9.28249221 5.79759989 -4.68339021 3.00217321 0 0 Z M-7 9 C-6.34 9 -5.68 9 -5 9 C-5 9.66 -5 10.32 -5 11 C-5.66 11 -6.32 11 -7 11 C-7 10.34 -7 9.68 -7 9 Z "
        fill="#3CB18C" transform="translate(307,108)" />
    <path
        d="M0 0 C0.598125 0.309375 1.19625 0.61875 1.8125 0.9375 C5.35883326 2.66000472 7.25673891 3.16170172 11 2 C11.33 2.66 11.66 3.32 12 4 C11.01 4.495 11.01 4.495 10 5 C9.67 5.99 9.34 6.98 9 8 C4.7257442 6.4169423 2.73468206 3.49431596 0 0 Z "
        fill="#3BB58E" transform="translate(388,288)" />
    <path
        d="M0 0 C0.33 0.66 0.66 1.32 1 2 C-0.55555556 6.55555556 -0.55555556 6.55555556 -2 8 C-2 8.33 -2 8.66 -2 9 C-3.98 9.33 -5.96 9.66 -8 10 C-6.34908222 5.70761377 -3.26245434 3.1206085 0 0 Z "
        fill="#40B18D" transform="translate(293,118)" />
    <path
        d="M0 0 C0.33 0 0.66 0 1 0 C1 3.63 1 7.26 1 11 C0.01 11.33 -0.98 11.66 -2 12 C-4.1875 10.5625 -4.1875 10.5625 -6 9 C-5.01 8.67 -4.02 8.34 -3 8 C-2.34 8.33 -1.68 8.66 -1 9 C-0.67 6.03 -0.34 3.06 0 0 Z "
        fill="#3FB188" transform="translate(465,162)" />
    <path
        d="M0 0 C1.21065165 3.63195496 0.62784815 5.06531629 -0.4375 8.6875 C-0.86869141 10.17830078 -0.86869141 10.17830078 -1.30859375 11.69921875 C-1.53675781 12.45847656 -1.76492188 13.21773438 -2 14 C-4.046875 10.28125 -4.046875 10.28125 -3.625 7.75 C-3.41875 7.1725 -3.2125 6.595 -3 6 C-2.34 6 -1.68 6 -1 6 C-0.67 4.02 -0.34 2.04 0 0 Z "
        fill="#42AE8C" transform="translate(480,325)" />
    <path
        d="M0 0 C-1.43011973 0.86646667 -2.86940619 1.71781829 -4.3125 2.5625 C-5.51326172 3.27599609 -5.51326172 3.27599609 -6.73828125 4.00390625 C-9 5 -9 5 -12 4 C-10.68 3.67 -9.36 3.34 -8 3 C-8 2.01 -8 1.02 -8 0 C-4.71303767 -0.79953138 -3.28976808 -1.09658936 0 0 Z "
        fill="#40B08D" transform="translate(447,378)" />
    <path
        d="M0 0 C1.32 1.65 2.64 3.3 4 5 C3.67 5.66 3.34 6.32 3 7 C2.67 6.01 2.34 5.02 2 4 C0.02 4.33 -1.96 4.66 -4 5 C-4.33 4.34 -4.66 3.68 -5 3 C-4.34 2.34 -3.68 1.68 -3 1 C-2.34 1 -1.68 1 -1 1 C-0.67 0.67 -0.34 0.34 0 0 Z "
        fill="#3CB48C" transform="translate(471,265)" />
    <path
        d="M0 0 C0.66 0 1.32 0 2 0 C2.33 0.99 2.66 1.98 3 3 C1.1875 6.1875 1.1875 6.1875 -1 9 C-1.66 9 -2.32 9 -3 9 C-2.01 6.03 -1.02 3.06 0 0 Z "
        fill="#42AF8C" transform="translate(273,145)" />
    <path d="M0 0 C3.96 1.98 3.96 1.98 8 4 C6 5 4 6 2 7 C1.34 4.69 0.68 2.38 0 0 Z " fill="#3BB48E"
        transform="translate(360,199)" />
    <path
        d="M0 0 C2 1.25 2 1.25 4 3 C4 4.32 4 5.64 4 7 C2.35 6.67 0.7 6.34 -1 6 C-0.67 4.02 -0.34 2.04 0 0 Z "
        fill="#38B48E" transform="translate(354,266)" />
    <path
        d="M0 0 C-2.98646769 1.99097846 -5.59687262 2.94124926 -9 4 C-8.6875 2.0625 -8.6875 2.0625 -8 0 C-4.71023192 -1.09658936 -3.28696233 -0.79953138 0 0 Z "
        fill="#46B08D" transform="translate(371,157)" />
    <path
        d="M0 0 C6.875 3.75 6.875 3.75 8 6 C5.03 5.505 5.03 5.505 2 5 C2 4.34 2 3.68 2 3 C1.34 3 0.68 3 0 3 C0 2.01 0 1.02 0 0 Z "
        fill="#3AAF88" transform="translate(447,241)" />
</svg>